<svg width="10.317993" height="10.318054" viewBox="0 0 10.318 10.3181" fill="none" xmlns="http://www.w3.org/2000/svg" xmlns:xlink="http://www.w3.org/1999/xlink">
	<desc>
			Created with Pixso.
	</desc>
	<defs/>
	<path id="Vector 189" d="M10.1072 8.03488L8.797 6.7247C8.40649 6.3342 7.77332 6.3342 7.38281 6.7247L6.51123 7.59625C6.32251 7.785 6.03406 7.83182 5.79529 7.71243C4.41504 7.02225 3.29578 5.90302 2.60559 4.52271C2.48621 4.28394 2.53296 3.99554 2.7218 3.80676L3.59326 2.93524C3.98389 2.54471 3.98389 1.91156 3.59326 1.52103L2.28308 0.210846C2.00195 -0.070282 1.54626 -0.070282 1.26514 0.210846C-0.254883 1.73074 -0.425781 4.13699 0.863892 5.85657L0.939087 5.95682C1.91187 7.25391 3.06409 8.40616 4.36121 9.379L4.46143 9.45416C6.18103 10.7439 8.58728 10.5728 10.1072 9.05295C10.3883 8.77182 10.3883 8.31601 10.1072 8.03488Z" fill="#FFFFFF" fill-opacity="1.000000" fill-rule="evenodd"/>
</svg>
