<svg width="14.000000" height="14.000000" viewBox="0 0 14 14" fill="none" xmlns="http://www.w3.org/2000/svg" xmlns:xlink="http://www.w3.org/1999/xlink">
	<desc>
			Created with Pixso.
	</desc>
	<defs/>
	<path id="Vector 189" d="M13.32 10.11L11.33 8.12C10.94 7.73 10.31 7.73 9.92 8.12L8.52 9.52C8.27 9.77 7.89 9.83 7.57 9.68C5.73 8.76 4.23 7.26 3.31 5.42C3.16 5.1 3.22 4.72 3.47 4.47L4.87 3.07C5.26 2.68 5.26 2.05 4.87 1.66L2.88 -0.33C2.51 -0.7 1.9 -0.7 1.53 -0.33C-0.5 1.7 -0.73 4.91 0.99 7.2L1.09 7.33C2.39 9.06 3.93 10.6 5.66 11.9L5.79 12C8.08 13.72 11.29 13.49 13.32 11.46C13.69 11.09 13.69 10.48 13.32 10.11Z" fill="#FFFFFF" fill-opacity="1.000000" fill-rule="evenodd"/>
</svg>
