<svg width="40.000000" height="40.000000" viewBox="0 0 40 40" fill="none" xmlns="http://www.w3.org/2000/svg" xmlns:xlink="http://www.w3.org/1999/xlink">
	<desc>
			Created with Pixso.
	</desc>
	<defs>
		<clipPath id="clip2_3692">
			<rect id="Icon/3" width="40.000000" height="40.000000" transform=" rotate(-0.000000)" fill="white" fill-opacity="0"/>
		</clipPath>
	</defs>
	<rect id="Icon/3" width="40.000000" height="40.000000" transform=" rotate(-0.000000)" fill="#FFFFFF" fill-opacity="0"/>
	<g clip-path="url(#clip2_3692)">
		<path id="Vector" d="M23.5496 18.9001C24.1996 16.1667 21.8163 13.7833 19.0829 14.4333C17.7996 14.75 16.7496 15.8 16.433 17.0835C15.783 19.8168 18.1663 22.2 20.8995 21.5499C22.1996 21.2333 23.2496 20.1835 23.5496 18.9001Z" fill="#386FFD" fill-opacity="1.000000" fill-rule="nonzero"/>
		<path id="Vector" d="M10.0349 29.95C9.73486 29.95 9.41821 29.8334 9.18494 29.6167C5.95154 26.6167 4.10156 22.3833 4.10156 17.9833C4.10156 9.21661 11.2349 2.08331 20.0015 2.08331C28.7682 2.08331 35.9015 9.21661 35.9015 17.9833C35.9015 22.4166 34.1182 26.5166 30.8849 29.5667C30.3849 30.0333 29.5848 30.0166 29.1182 29.5166C28.6515 29.0166 28.6682 28.2167 29.1682 27.75C31.9015 25.1833 33.4015 21.7333 33.4015 18C33.4015 10.6166 27.3849 4.59998 20.0015 4.59998C12.6182 4.59998 6.60156 10.6166 6.60156 18C6.60156 21.7666 8.11816 25.2333 10.8849 27.7999C11.3849 28.2666 11.4182 29.0667 10.9515 29.5667C10.7015 29.8167 10.3683 29.95 10.0349 29.95Z" fill="#7DF5CA" fill-opacity="1.000000" fill-rule="nonzero"/>
		<path id="Vector" d="M26.6659 25.5C26.366 25.5 26.0492 25.3833 25.8159 25.1666C25.3159 24.7 25.2826 23.9 25.7659 23.4C27.1493 21.9333 27.9159 20 27.9159 18C27.9159 13.6334 24.366 10.1001 20.0159 10.1001C15.6659 10.1001 12.116 13.65 12.116 18C12.116 20.0167 12.8826 21.9333 14.266 23.4C14.7327 23.9 14.7159 24.7 14.2159 25.1666C13.7159 25.65 12.916 25.6168 12.4493 25.1168C10.6327 23.1835 9.61597 20.65 9.61597 18C9.61597 12.2667 14.2826 7.6001 20.0159 7.6001C25.7493 7.6001 30.4159 12.2667 30.4159 18C30.4159 20.65 29.4159 23.1835 27.5826 25.1168C27.3326 25.3668 26.9993 25.5 26.6659 25.5Z" fill="#7DF5CA" fill-opacity="1.000000" fill-rule="nonzero"/>
		<path id="Vector" d="M17.1678 27.7667L14.7678 30.7501C12.8678 33.1335 14.5511 36.65 17.6012 36.65L22.3845 36.65C25.4344 36.65 27.1345 33.1168 25.2178 30.7501L22.8179 27.7667C21.3845 25.95 18.6178 25.95 17.1678 27.7667Z" fill="#386FFD" fill-opacity="1.000000" fill-rule="nonzero"/>
	</g>
</svg>
