<svg width="40.000000" height="40.000000" viewBox="0 0 40 40" fill="none" xmlns="http://www.w3.org/2000/svg" xmlns:xlink="http://www.w3.org/1999/xlink">
	<desc>
			Created with Pixso.
	</desc>
	<defs>
		<clipPath id="clip2_3676">
			<rect id="Icon/1" width="40.000000" height="40.000000" transform=" rotate(-0.000000)" fill="white" fill-opacity="0"/>
		</clipPath>
	</defs>
	<rect id="Icon/1" width="40.000000" height="40.000000" transform=" rotate(-0.000000)" fill="#FFFFFF" fill-opacity="0"/>
	<g clip-path="url(#clip2_3676)">
		<path id="Vector" d="M5 27.5C4.31665 27.5 3.75 26.9333 3.75 26.25L3.75 13.75C3.75 13.0667 4.31665 12.5 5 12.5C5.68335 12.5 6.25 13.0667 6.25 13.75L6.25 26.25C6.25 26.9333 5.68335 27.5 5 27.5Z" fill="#386FFD" fill-opacity="1.000000" fill-rule="nonzero"/>
		<path id="Vector" d="M12.5 31.6666C11.8167 31.6666 11.25 31.1 11.25 30.4166L11.25 9.58331C11.25 8.89996 11.8167 8.33331 12.5 8.33331C13.1833 8.33331 13.75 8.89996 13.75 9.58331L13.75 30.4166C13.75 31.1 13.1833 31.6666 12.5 31.6666Z" fill="#7DF5CA" fill-opacity="1.000000" fill-rule="nonzero"/>
		<path id="Vector" d="M20 35.8334C19.3167 35.8334 18.75 35.2667 18.75 34.5834L18.75 5.41669C18.75 4.73334 19.3167 4.16669 20 4.16669C20.6833 4.16669 21.25 4.73334 21.25 5.41669L21.25 34.5834C21.25 35.2667 20.6833 35.8334 20 35.8334Z" fill="#386FFD" fill-opacity="1.000000" fill-rule="nonzero"/>
		<path id="Vector" d="M27.5 31.6666C26.8167 31.6666 26.25 31.1 26.25 30.4166L26.25 9.58331C26.25 8.89996 26.8167 8.33331 27.5 8.33331C28.1833 8.33331 28.75 8.89996 28.75 9.58331L28.75 30.4166C28.75 31.1 28.1833 31.6666 27.5 31.6666Z" fill="#7DF5CA" fill-opacity="1.000000" fill-rule="nonzero"/>
		<path id="Vector" d="M35 27.5C34.3167 27.5 33.75 26.9333 33.75 26.25L33.75 13.75C33.75 13.0667 34.3167 12.5 35 12.5C35.6833 12.5 36.25 13.0667 36.25 13.75L36.25 26.25C36.25 26.9333 35.6833 27.5 35 27.5Z" fill="#386FFD" fill-opacity="1.000000" fill-rule="nonzero"/>
	</g>
</svg>
