<svg width="40.037231" height="40.037231" viewBox="0 0 40.0372 40.0372" fill="none" xmlns="http://www.w3.org/2000/svg" xmlns:xlink="http://www.w3.org/1999/xlink">
	<desc>
			Created with Pixso.
	</desc>
	<defs/>
	<path id="Vector" d="M37.244 20.0187C37.244 29.5256 29.5256 37.244 20.0187 37.244C10.5117 37.244 2.79333 29.5256 2.79333 20.0187C2.79333 10.5117 10.5117 2.79327 20.0187 2.79327C24.7721 2.79327 29.0782 4.72314 32.1963 7.84106C32.7413 8.38611 33.6263 8.38611 34.1714 7.84106C34.7164 7.29602 34.7164 6.41095 34.1714 5.86591C30.5479 2.24231 25.543 0 20.0187 0C8.97009 0 0 8.97003 0 20.0187C0 31.0673 8.97009 40.0372 20.0187 40.0372C31.0673 40.0372 40.0372 31.0673 40.0372 20.0187C40.0372 19.2478 39.4115 18.6219 38.6406 18.6219C37.8699 18.6219 37.244 19.2478 37.244 20.0187ZM30.7484 29.7565C30.9142 29.782 31.084 29.7952 31.2567 29.7952C33.0912 29.7952 34.5804 28.3059 34.5804 26.4714C34.5804 24.6371 33.0912 23.1477 31.2567 23.1477C30.4896 23.1477 29.7828 23.4082 29.22 23.8456L23.2373 20.6014C23.2638 20.4326 23.2775 20.2596 23.2775 20.0835C23.2775 18.2562 21.7998 16.7714 19.9752 16.7599L19.9537 16.7598C18.1194 16.7598 16.63 18.2491 16.63 20.0835C16.63 21.918 18.1194 23.4072 19.9537 23.4072L19.9752 23.4072C20.5952 23.4032 21.1752 23.2291 21.6707 22.9294L27.9362 26.3269C27.9341 26.3749 27.933 26.423 27.933 26.4714C27.933 27.0948 28.105 27.6783 28.4041 28.1771C26.2732 30.4011 23.274 31.7871 19.9537 31.7871C13.4944 31.7871 8.25012 26.543 8.25012 20.0835C8.25012 13.6241 13.4944 8.37988 19.9537 8.37988C26.4132 8.37988 31.6573 13.6241 31.6573 20.0835C31.6573 20.8544 32.2832 21.4802 33.0541 21.4802C33.825 21.4802 34.4507 20.8544 34.4507 20.0835C34.4507 12.0824 27.9548 5.58661 19.9537 5.58661C11.9526 5.58661 5.45691 12.0824 5.45691 20.0835C5.45691 28.0846 11.9526 34.5804 19.9537 34.5804C24.2396 34.5804 28.0939 32.7169 30.7484 29.7565ZM19.9537 19.5531C19.661 19.5531 19.4233 19.7908 19.4233 20.0835C19.4233 20.3762 19.661 20.6139 19.9537 20.6139L19.9674 20.6138C20.1296 20.6097 20.2738 20.5326 20.3683 20.4142C20.3744 20.406 20.3805 20.3979 20.3867 20.3899C20.4481 20.3033 20.4841 20.1976 20.4841 20.0835C20.4841 19.7953 20.2539 19.5605 19.9674 19.5532L19.9537 19.5531Z" fill="#7DF5CA" fill-opacity="1.000000" fill-rule="evenodd"/>
</svg>
