<svg width="24.000000" height="24.000000" viewBox="0 0 24 24" fill="none" xmlns="http://www.w3.org/2000/svg" xmlns:xlink="http://www.w3.org/1999/xlink">
	<desc>
			Created with Pixso.
	</desc>
	<defs>
		<clipPath id="clip2_3961">
			<rect id="Icon/Twitter" width="24.000000" height="24.000000" fill="white" fill-opacity="0"/>
		</clipPath>
	</defs>
	<rect id="Icon/Twitter" width="24.000000" height="24.000000" fill="#FFFFFF" fill-opacity="0"/>
	<g clip-path="url(#clip2_3961)">
		<path id="Vector" d="M7.54 21.75C4.76 21.75 2.17 20.93 0 19.53C1.28 19.69 2.59 19.59 3.84 19.24C5.09 18.89 6.26 18.29 7.28 17.49C6.26 17.47 5.26 17.13 4.43 16.52C3.61 15.91 3 15.05 2.69 14.07C2.99 14.13 3.29 14.16 3.61 14.16C4.06 14.16 4.5 14.1 4.91 13.99C3.8 13.77 2.8 13.16 2.08 12.28C1.36 11.4 0.96 10.3 0.96 9.16L0.96 9.1C1.64 9.48 2.41 9.69 3.19 9.72C2.51 9.27 1.96 8.66 1.58 7.94C1.2 7.23 1 6.43 1 5.62C1 4.72 1.24 3.87 1.67 3.14C2.9 4.66 4.44 5.91 6.19 6.79C7.94 7.68 9.86 8.19 11.81 8.29C11.57 7.23 11.68 6.12 12.13 5.14C12.57 4.15 13.33 3.34 14.29 2.83C15.24 2.32 16.34 2.13 17.41 2.31C18.48 2.49 19.46 3.01 20.2 3.8C21.31 3.58 22.36 3.18 23.33 2.61C22.96 3.75 22.19 4.71 21.17 5.33C22.14 5.21 23.1 4.95 24 4.56C23.33 5.54 22.5 6.41 21.54 7.1C21.55 7.31 21.55 7.53 21.55 7.74C21.55 14.24 16.6 21.75 7.54 21.75Z" fill="#FFFFFF" fill-opacity="1.000000" fill-rule="nonzero"/>
	</g>
</svg>
