<svg width="24.000000" height="24.000000" viewBox="0 0 24 24" fill="none" xmlns="http://www.w3.org/2000/svg" xmlns:xlink="http://www.w3.org/1999/xlink">
	<desc>
			Created with Pixso.
	</desc>
	<defs>
		<clipPath id="clip2_3963">
			<rect id="Icon/Instagram" width="24.000000" height="24.000000" fill="white" fill-opacity="0"/>
		</clipPath>
	</defs>
	<rect id="Icon/Instagram" width="24.000000" height="24.000000" fill="#FFFFFF" fill-opacity="0"/>
	<g clip-path="url(#clip2_3963)">
		<path id="Vector" d="M18 2L6 2C3.8 2 2 3.79 2 6L2 18C2 20.2 3.8 22 6 22L18 22C20.2 22 22 20.2 22 18L22 6C22 3.79 20.2 2 18 2ZM12 17C9.25 17 7 14.75 7 12C7 9.25 9.25 7 12 7C14.75 7 17 9.25 17 12C17 14.75 14.75 17 12 17ZM17.5 7.5C16.95 7.5 16.5 7.04 16.5 6.5C16.5 5.95 16.95 5.5 17.5 5.5C18.04 5.5 18.5 5.95 18.5 6.5C18.5 7.04 18.04 7.5 17.5 7.5Z" fill="#FFFFFF" fill-opacity="1.000000" fill-rule="nonzero"/>
	</g>
</svg>
