<svg width="14.000000" height="16.000000" viewBox="0 0 14 16" fill="none" xmlns="http://www.w3.org/2000/svg" xmlns:xlink="http://www.w3.org/1999/xlink">
	<desc>
			Created with Pixso.
	</desc>
	<defs/>
	<path id="Vector" d="M7.39 15.8C8.88 15.03 14 12.01 14 7C14 3.13 10.86 0 7 0C3.13 0 0 3.13 0 7C0 12.01 5.11 15.03 6.6 15.8C6.85 15.93 7.14 15.93 7.39 15.8ZM7 10C8.65 10 10 8.65 10 7C10 5.34 8.65 4 7 4C5.34 4 4 5.34 4 7C4 8.65 5.34 10 7 10Z" fill="#FFFFFF" fill-opacity="1.000000" fill-rule="evenodd"/>
</svg>
