<svg width="40.000000" height="40.000000" viewBox="0 0 40 40" fill="none" xmlns="http://www.w3.org/2000/svg" xmlns:xlink="http://www.w3.org/1999/xlink">
	<desc>
			Created with Pixso.
	</desc>
	<defs>
		<clipPath id="clip2_4169">
			<rect id="Icon/4" width="40.000000" height="40.000000" fill="white" fill-opacity="0"/>
		</clipPath>
	</defs>
	<rect id="Icon/4" width="40.000000" height="40.000000" fill="#FFFFFF" fill-opacity="0"/>
	<g clip-path="url(#clip2_4169)">
		<path id="Vector" d="M8.88196 32.3666C8.69861 32.3666 8.4986 32.3167 8.33197 32.2333L4.63196 30.3833C4.21527 30.1666 3.94861 29.7333 3.94861 29.2666L3.94861 24.6333C3.94861 23.95 4.51526 23.3833 5.19861 23.3833C5.88196 23.3833 6.44861 23.95 6.44861 24.6333L6.44861 28.4833L9.46527 29.9833C10.082 30.2999 10.3319 31.0499 10.0319 31.6666C9.78192 32.1 9.34863 32.3666 8.88196 32.3666Z" fill="#7DF5CA" fill-opacity="1.000000" fill-rule="nonzero"/>
		<path id="Vector" d="M19.9991 37.9166C19.8992 37.9166 19.7992 37.9 19.7158 37.8833C19.6158 37.8667 19.5158 37.8167 19.4158 37.7666L15.7325 35.9333C15.1158 35.6167 14.8658 34.8667 15.1658 34.25C15.4824 33.6333 16.2324 33.3833 16.8492 33.6833L18.7491 34.6333L18.7491 32.0333C18.7491 31.35 19.3159 30.7833 19.9991 30.7833C20.6825 30.7833 21.2491 31.35 21.2491 32.0333L21.2491 34.6333L23.1492 33.6833C23.7658 33.3833 24.5158 33.6333 24.8325 34.25C25.1492 34.8667 24.8992 35.6167 24.2658 35.9333L20.5825 37.7666C20.4825 37.8167 20.3825 37.85 20.2825 37.8833C20.1825 37.9 20.0992 37.9166 19.9991 37.9166Z" fill="#386FFD" fill-opacity="1.000000" fill-rule="nonzero"/>
		<path id="Vector" d="M31.1169 32.3667C30.667 32.3667 30.217 32.1167 30.0003 31.6833C29.6837 31.0667 29.9337 30.3167 30.567 30L33.5836 28.5002L33.5836 24.65C33.5836 23.9667 34.1503 23.4 34.8336 23.4C35.517 23.4 36.0836 23.9667 36.0836 24.65L36.0836 29.2836C36.0836 29.7502 35.817 30.1835 35.4003 30.4001L31.7003 32.2502C31.4836 32.3169 31.3003 32.3667 31.1169 32.3667Z" fill="#7DF5CA" fill-opacity="1.000000" fill-rule="nonzero"/>
		<path id="Vector" d="M19.9991 24.0333C19.3159 24.0333 18.7491 23.4667 18.7491 22.7833L18.7491 18.9333L15.7325 17.4335C15.1158 17.1168 14.8658 16.3667 15.1658 15.7501C15.4824 15.1334 16.2324 14.8834 16.8492 15.1835L19.9991 16.75L23.1492 15.1835C23.7658 14.8834 24.5158 15.1167 24.8325 15.7501C25.1492 16.3667 24.8992 17.1168 24.2658 17.4335L21.2491 18.9333L21.2491 22.7833C21.2491 23.4667 20.6825 24.0333 19.9991 24.0333Z" fill="#386FFD" fill-opacity="1.000000" fill-rule="nonzero"/>
		<path id="Vector" d="M5.18231 16.6165C4.49896 16.6165 3.93231 16.0498 3.93231 15.3665L3.93231 10.7665L3.93231 10.7498C3.93231 10.6498 3.94897 10.5497 3.96564 10.4664C3.99896 10.3331 4.04895 10.2164 4.11566 10.0997C4.16565 10.0164 4.21564 9.94971 4.28229 9.88306C4.34894 9.81641 4.43231 9.74976 4.51562 9.69971C4.54895 9.68311 4.59894 9.64978 4.63232 9.63306L8.31561 7.79968C8.93231 7.49976 9.68231 7.73303 9.99896 8.36646C10.3156 8.98303 10.0657 9.73303 9.43231 10.0497L7.96564 10.7831L9.43231 11.5165C10.049 11.8331 10.299 12.5831 9.99896 13.1997C9.69897 13.8164 8.93231 14.0664 8.31561 13.7664L6.41565 12.8164L6.41565 15.4164C6.43231 16.0664 5.88232 16.6165 5.18231 16.6165Z" fill="#7DF5CA" fill-opacity="1.000000" fill-rule="nonzero"/>
		<path id="Vector" d="M23.6996 6.43347C23.5164 6.43347 23.3163 6.38342 23.1497 6.30005L19.9997 4.7334L16.8497 6.30005C16.233 6.61682 15.483 6.36682 15.1663 5.7334C14.8497 5.11682 15.0997 4.3667 15.733 4.05005L19.433 2.20007C19.783 2.01685 20.1996 2.01685 20.5497 2.20007L24.2497 4.05005C24.8663 4.3667 25.1163 5.11682 24.8163 5.7334C24.5997 6.18347 24.1663 6.43347 23.6996 6.43347Z" fill="#386FFD" fill-opacity="1.000000" fill-rule="nonzero"/>
		<path id="Vector" d="M34.8173 16.6167C34.134 16.6167 33.5673 16.05 33.5673 15.3667L33.5673 12.7667L31.6674 13.7167C31.0507 14.0333 30.3007 13.7833 29.984 13.15C29.6674 12.5333 29.9174 11.7833 30.5507 11.4667L32.0173 10.7334L30.5507 10C29.934 9.68335 29.684 8.93335 29.984 8.31665C30.284 7.70007 31.0507 7.45007 31.6674 7.75L35.3506 9.58337C35.384 9.59998 35.434 9.6167 35.4673 9.65002C35.5673 9.70007 35.6507 9.78333 35.734 9.8667C35.784 9.93335 35.834 10 35.884 10.0667C35.9507 10.1833 36.0007 10.3 36.034 10.4333C36.0507 10.5333 36.0673 10.6333 36.0673 10.7167L36.0673 10.7334L36.0673 15.3334C36.0673 16.0667 35.5007 16.6167 34.8173 16.6167Z" fill="#7DF5CA" fill-opacity="1.000000" fill-rule="nonzero"/>
	</g>
</svg>
