<svg width="40.000000" height="40.000000" viewBox="0 0 40 40" fill="none" xmlns="http://www.w3.org/2000/svg" xmlns:xlink="http://www.w3.org/1999/xlink">
	<desc>
			Created with Pixso.
	</desc>
	<defs>
		<clipPath id="clip2_4180">
			<rect id="Icon/12" width="40.000000" height="40.000000" fill="white" fill-opacity="0"/>
		</clipPath>
	</defs>
	<rect id="Icon/12" width="40.000000" height="40.000000" fill="#FFFFFF" fill-opacity="0"/>
	<g clip-path="url(#clip2_4180)">
		<path id="Vector" d="M20 12.5C20.3315 12.5 20.6494 12.6317 20.8839 12.8661C21.1183 13.1006 21.25 13.4185 21.25 13.75L21.25 17.5L25 17.5C25.3315 17.5 25.6494 17.6317 25.8839 17.8661C26.1183 18.1006 26.25 18.4185 26.25 18.75C26.25 19.0815 26.1183 19.3994 25.8839 19.6339C25.6494 19.8683 25.3315 20 25 20L21.25 20L21.25 23.75C21.25 24.0815 21.1183 24.3994 20.8839 24.6339C20.6494 24.8683 20.3315 25 20 25C19.6685 25 19.3506 24.8683 19.1161 24.6339C18.8817 24.3994 18.75 24.0815 18.75 23.75L18.75 20L15 20C14.6685 20 14.3506 19.8683 14.1161 19.6339C13.8817 19.3994 13.75 19.0815 13.75 18.75C13.75 18.4185 13.8817 18.1006 14.1161 17.8661C14.3506 17.6317 14.6685 17.5 15 17.5L18.75 17.5L18.75 13.75C18.75 13.4185 18.8817 13.1006 19.1161 12.8661C19.3506 12.6317 19.6685 12.5 20 12.5ZM13.75 28.75C13.75 28.4185 13.8817 28.1006 14.1161 27.8661C14.3506 27.6317 14.6685 27.5 15 27.5L25 27.5C25.3315 27.5 25.6494 27.6317 25.8839 27.8661C26.1183 28.1006 26.25 28.4185 26.25 28.75C26.25 29.0815 26.1183 29.3994 25.8839 29.6339C25.6494 29.8683 25.3315 30 25 30L15 30C14.6685 30 14.3506 29.8683 14.1161 29.6339C13.8817 29.3994 13.75 29.0815 13.75 28.75Z" fill="#386FFD" fill-opacity="1.000000" fill-rule="nonzero"/>
		<path id="Vector" d="M35 35L35 11.25L23.75 0L10 0C8.67395 0 7.4021 0.526733 6.46448 1.46448C5.52673 2.4021 5 3.67395 5 5L5 35C5 36.326 5.52673 37.5979 6.46448 38.5355C7.4021 39.4733 8.67395 40 10 40L30 40C31.326 40 32.5979 39.4733 33.5355 38.5355C34.4733 37.5979 35 36.326 35 35ZM23.75 7.5C23.75 8.49451 24.1451 9.44836 24.8484 10.1516C25.5516 10.8549 26.5055 11.25 27.5 11.25L32.5 11.25L32.5 35C32.5 35.6631 32.2366 36.299 31.7678 36.7678C31.299 37.2366 30.6631 37.5 30 37.5L10 37.5C9.33691 37.5 8.70105 37.2366 8.23218 36.7678C7.76343 36.299 7.5 35.6631 7.5 35L7.5 5C7.5 4.33691 7.76343 3.70105 8.23218 3.23218C8.70105 2.76343 9.33691 2.5 10 2.5L23.75 2.5L23.75 7.5Z" fill="#7DF5CA" fill-opacity="1.000000" fill-rule="nonzero"/>
	</g>
</svg>
