<svg width="40.000000" height="40.000000" viewBox="0 0 40 40" fill="none" xmlns="http://www.w3.org/2000/svg" xmlns:xlink="http://www.w3.org/1999/xlink">
	<desc>
			Created with Pixso.
	</desc>
	<defs>
		<clipPath id="clip2_4162">
			<rect id="Icon/11" width="40.000000" height="40.000000" fill="white" fill-opacity="0"/>
		</clipPath>
	</defs>
	<rect id="Icon/11" width="40.000000" height="40.000000" fill="#FFFFFF" fill-opacity="0"/>
	<g clip-path="url(#clip2_4162)">
		<path id="Vector" d="M8.75 25C8.41846 25 8.10059 24.8683 7.86609 24.6339C7.63171 24.3994 7.5 24.0815 7.5 23.75L7.5 3.75C7.5 3.41846 7.63171 3.10059 7.86609 2.86609C8.10059 2.63171 8.41846 2.5 8.75 2.5L31.25 2.5C31.5815 2.5 31.8994 2.63171 32.1339 2.86609C32.3683 3.10059 32.5 3.41846 32.5 3.75L32.5 23.75C32.5 24.0815 32.3683 24.3994 32.1339 24.6339C31.8994 24.8683 31.5815 25 31.25 25L26.25 25C25.9185 25 25.6006 25.1317 25.3661 25.3661C25.1317 25.6006 25 25.9185 25 26.25C25 26.5815 25.1317 26.8994 25.3661 27.1339C25.6006 27.3683 25.9185 27.5 26.25 27.5L31.25 27.5C32.2445 27.5 33.1984 27.1049 33.9016 26.4016C34.6049 25.6984 35 24.7445 35 23.75L35 3.75C35 2.75549 34.6049 1.80164 33.9016 1.09839C33.1984 0.395142 32.2445 0 31.25 0L8.75 0C7.75549 0 6.80164 0.395142 6.09839 1.09839C5.39514 1.80164 5 2.75549 5 3.75L5 23.75C5 24.7445 5.39514 25.6984 6.09839 26.4016C6.80164 27.1049 7.75549 27.5 8.75 27.5L13.75 27.5C14.0815 27.5 14.3994 27.3683 14.6339 27.1339C14.8683 26.8994 15 26.5815 15 26.25C15 25.9185 14.8683 25.6006 14.6339 25.3661C14.3994 25.1317 14.0815 25 13.75 25L8.75 25Z" fill="#7DF5CA" fill-opacity="1.000000" fill-rule="evenodd"/>
		<path id="Vector" d="M19.115 39.635C19.2311 39.7515 19.369 39.8438 19.5209 39.9067C19.6727 39.9698 19.8356 40.0022 20 40.0022C20.1644 40.0022 20.3273 39.9698 20.4791 39.9067C20.631 39.8438 20.7689 39.7515 20.885 39.635L28.385 32.135C28.6198 31.9003 28.7516 31.5819 28.7516 31.25C28.7516 30.9181 28.6198 30.5997 28.385 30.365C28.1503 30.1302 27.8319 29.9984 27.5 29.9984C27.1681 29.9984 26.8497 30.1302 26.615 30.365L21.25 35.7325L21.25 13.75C21.25 13.4185 21.1183 13.1006 20.8839 12.8661C20.6494 12.6317 20.3315 12.5 20 12.5C19.6685 12.5 19.3506 12.6317 19.1161 12.8661C18.8817 13.1006 18.75 13.4185 18.75 13.75L18.75 35.7325L13.385 30.365C13.1503 30.1302 12.8319 29.9984 12.5 29.9984C12.1681 29.9984 11.8497 30.1302 11.615 30.365C11.3802 30.5997 11.2484 30.9181 11.2484 31.25C11.2484 31.5819 11.3802 31.9003 11.615 32.135L19.115 39.635Z" fill="#386FFD" fill-opacity="1.000000" fill-rule="evenodd"/>
	</g>
</svg>
