<svg width="40.000000" height="40.000000" viewBox="0 0 40 40" fill="none" xmlns="http://www.w3.org/2000/svg" xmlns:xlink="http://www.w3.org/1999/xlink">
	<desc>
			Created with Pixso.
	</desc>
	<defs>
		<clipPath id="clip2_4185">
			<rect id="Icon/14" width="40.000000" height="40.000000" fill="white" fill-opacity="0"/>
		</clipPath>
	</defs>
	<rect id="Icon/14" width="40.000000" height="40.000000" fill="#FFFFFF" fill-opacity="0"/>
	<g clip-path="url(#clip2_4185)">
		<path id="Vector" d="M3.75 2.5C3.41846 2.5 3.10052 2.63171 2.86609 2.86609C2.63171 3.10059 2.5 3.41846 2.5 3.75L2.5 11.25C2.5 11.5815 2.36829 11.8994 2.13391 12.1339C1.89948 12.3683 1.58154 12.5 1.25 12.5C0.918457 12.5 0.600525 12.3683 0.366089 12.1339C0.131714 11.8994 0 11.5815 0 11.25L0 3.75C0 2.75549 0.395081 1.80164 1.09833 1.09839C1.80164 0.395142 2.75543 0 3.75 0L11.25 0C11.5815 0 11.8995 0.131714 12.1339 0.366089C12.3683 0.600586 12.5 0.918457 12.5 1.25C12.5 1.58154 12.3683 1.89941 12.1339 2.13391C11.8995 2.36829 11.5815 2.5 11.25 2.5L3.75 2.5ZM27.5 1.25C27.5 0.918457 27.6317 0.600586 27.8661 0.366089C28.1005 0.131714 28.4185 0 28.75 0L36.25 0C37.2446 0 38.1984 0.395142 38.9017 1.09839C39.6049 1.80164 40 2.75549 40 3.75L40 11.25C40 11.5815 39.8683 11.8994 39.6339 12.1339C39.3995 12.3683 39.0815 12.5 38.75 12.5C38.4185 12.5 38.1005 12.3683 37.8661 12.1339C37.6317 11.8994 37.5 11.5815 37.5 11.25L37.5 3.75C37.5 3.41846 37.3683 3.10059 37.1339 2.86609C36.8995 2.63171 36.5815 2.5 36.25 2.5L28.75 2.5C28.4185 2.5 28.1005 2.36829 27.8661 2.13391C27.6317 1.89941 27.5 1.58154 27.5 1.25ZM1.25 27.5C1.58154 27.5 1.89948 27.6317 2.13391 27.8661C2.36829 28.1006 2.5 28.4185 2.5 28.75L2.5 36.25C2.5 36.5815 2.63171 36.8994 2.86609 37.1339C3.10052 37.3683 3.41846 37.5 3.75 37.5L11.25 37.5C11.5815 37.5 11.8995 37.6317 12.1339 37.8661C12.3683 38.1006 12.5 38.4185 12.5 38.75C12.5 39.0815 12.3683 39.3994 12.1339 39.6339C11.8995 39.8683 11.5815 40 11.25 40L3.75 40C2.75543 40 1.80164 39.6049 1.09833 38.9016C0.395081 38.1984 0 37.2445 0 36.25L0 28.75C0 28.4185 0.131714 28.1006 0.366089 27.8661C0.600525 27.6317 0.918457 27.5 1.25 27.5ZM38.75 27.5C39.0815 27.5 39.3995 27.6317 39.6339 27.8661C39.8683 28.1006 40 28.4185 40 28.75L40 36.25C40 37.2445 39.6049 38.1984 38.9017 38.9016C38.1984 39.6049 37.2446 40 36.25 40L28.75 40C28.4185 40 28.1005 39.8683 27.8661 39.6339C27.6317 39.3994 27.5 39.0815 27.5 38.75C27.5 38.4185 27.6317 38.1006 27.8661 37.8661C28.1005 37.6317 28.4185 37.5 28.75 37.5L36.25 37.5C36.5815 37.5 36.8995 37.3683 37.1339 37.1339C37.3683 36.8994 37.5 36.5815 37.5 36.25L37.5 28.75C37.5 28.4185 37.6317 28.1006 37.8661 27.8661C38.1005 27.6317 38.4185 27.5 38.75 27.5Z" fill="#7DF5CA" fill-opacity="1.000000" fill-rule="nonzero"/>
		<path id="Vector" d="M7.5 35C7.5 35 5 35 5 32.5C5 30 7.5 22.5 20 22.5C32.5 22.5 35 30 35 32.5C35 35 32.5 35 32.5 35L7.5 35ZM27.5 12.5C27.5 14.4891 26.7098 16.3967 25.3033 17.8033C23.8968 19.2098 21.9891 20 20 20C18.0109 20 16.1032 19.2098 14.6967 17.8033C13.2902 16.3967 12.5 14.4891 12.5 12.5C12.5 10.5109 13.2902 8.60327 14.6967 7.19666C16.1032 5.79016 18.0109 5 20 5C21.9891 5 23.8968 5.79016 25.3033 7.19666C26.7098 8.60327 27.5 10.5109 27.5 12.5Z" fill="#386FFD" fill-opacity="1.000000" fill-rule="nonzero"/>
	</g>
</svg>
