<svg width="40.000000" height="40.000000" viewBox="0 0 40 40" fill="none" xmlns="http://www.w3.org/2000/svg" xmlns:xlink="http://www.w3.org/1999/xlink">
	<desc>
			Created with Pixso.
	</desc>
	<defs>
		<clipPath id="clip2_4175">
			<rect id="Icon/13" width="40.000000" height="40.000000" fill="white" fill-opacity="0"/>
		</clipPath>
	</defs>
	<rect id="Icon/13" width="40.000000" height="40.000000" fill="#FFFFFF" fill-opacity="0"/>
	<g clip-path="url(#clip2_4175)">
		<path id="Vector" d="M33.75 2.5C34.4131 2.5 35.049 2.76343 35.5178 3.23218C35.9866 3.70105 36.25 4.33691 36.25 5L36.25 35C36.25 35.6631 35.9866 36.299 35.5178 36.7678C35.049 37.2366 34.4131 37.5 33.75 37.5L6.25 37.5C5.58691 37.5 4.95105 37.2366 4.48218 36.7678C4.01343 36.299 3.75 35.6631 3.75 35L3.75 5C3.75 4.33691 4.01343 3.70105 4.48218 3.23218C4.95105 2.76343 5.58691 2.5 6.25 2.5L33.75 2.5ZM6.25 0C4.92395 0 3.6521 0.526733 2.71448 1.46448C1.77673 2.4021 1.25 3.67395 1.25 5L1.25 35C1.25 36.326 1.77673 37.5979 2.71448 38.5355C3.6521 39.4733 4.92395 40 6.25 40L33.75 40C35.076 40 36.3479 39.4733 37.2855 38.5355C38.2233 37.5979 38.75 36.326 38.75 35L38.75 5C38.75 3.67395 38.2233 2.4021 37.2855 1.46448C36.3479 0.526733 35.076 0 33.75 0L6.25 0Z" fill="#7DF5CA" fill-opacity="1.000000" fill-rule="nonzero"/>
		<path id="Vector" d="M16.25 7.5C16.25 6.83691 16.5134 6.20105 16.9822 5.73218C17.451 5.26343 18.0869 5 18.75 5L21.25 5C21.9131 5 22.549 5.26343 23.0178 5.73218C23.4866 6.20105 23.75 6.83691 23.75 7.5L23.75 15C23.75 15.6631 23.4866 16.299 23.0178 16.7678C22.549 17.2366 21.9131 17.5 21.25 17.5L18.75 17.5C18.0869 17.5 17.451 17.2366 16.9822 16.7678C16.5134 16.299 16.25 15.6631 16.25 15L16.25 7.5ZM6.25 7.5C6.25 6.83691 6.51343 6.20105 6.98218 5.73218C7.45105 5.26343 8.08691 5 8.75 5L11.25 5C11.9131 5 12.549 5.26343 13.0178 5.73218C13.4866 6.20105 13.75 6.83691 13.75 7.5L13.75 25C13.75 25.6631 13.4866 26.299 13.0178 26.7678C12.549 27.2366 11.9131 27.5 11.25 27.5L8.75 27.5C8.08691 27.5 7.45105 27.2366 6.98218 26.7678C6.51343 26.299 6.25 25.6631 6.25 25L6.25 7.5ZM26.25 7.5C26.25 6.83691 26.5134 6.20105 26.9822 5.73218C27.451 5.26343 28.0869 5 28.75 5L31.25 5C31.9131 5 32.549 5.26343 33.0178 5.73218C33.4866 6.20105 33.75 6.83691 33.75 7.5L33.75 32.5C33.75 33.1631 33.4866 33.799 33.0178 34.2678C32.549 34.7366 31.9131 35 31.25 35L28.75 35C28.0869 35 27.451 34.7366 26.9822 34.2678C26.5134 33.799 26.25 33.1631 26.25 32.5L26.25 7.5Z" fill="#386FFD" fill-opacity="1.000000" fill-rule="nonzero"/>
	</g>
</svg>
